<svg width="37" height="36" viewBox="0 0 37 36" fill="none" xmlns="http://www.w3.org/2000/svg">
<path opacity="0.3" fill-rule="evenodd" clip-rule="evenodd" d="M11.4786 28.3938L9.56789 30.7023C5.82526 27.5875 3.61597 22.9731 3.61597 18C3.61597 13.0339 5.81912 8.42518 9.55287 5.3103L11.4663 7.61653C8.40865 10.1673 6.60772 13.9346 6.60772 18C6.60772 22.0711 8.41368 25.843 11.4786 28.3938ZM25.6709 28.3938L27.5816 30.7023C31.3242 27.5875 33.5335 22.9731 33.5335 18C33.5335 13.0339 31.3303 8.42518 27.5966 5.3103L25.6832 7.61653C28.7408 10.1673 30.5417 13.9346 30.5417 18C30.5417 22.0711 28.7358 25.843 25.6709 28.3938ZM21.8335 23.7899L23.7368 26.1045C26.1332 24.123 27.55 21.1761 27.55 18C27.55 14.8344 26.1425 11.8961 23.7596 9.91448L21.8498 12.2237C23.5544 13.6413 24.5582 15.7368 24.5582 18C24.5582 20.2707 23.5478 22.3724 21.8335 23.7899ZM13.4126 26.1045L15.316 23.7899C13.6017 22.3724 12.5912 20.2707 12.5912 18C12.5912 15.7368 13.595 13.6413 15.2997 12.2237L13.3898 9.91448C11.0069 11.8961 9.59947 14.8344 9.59947 18C9.59947 21.1761 11.0163 24.123 13.4126 26.1045Z" fill="#99EFD0"/>
<path fill-rule="evenodd" clip-rule="evenodd" d="M18.5747 21C20.227 21 21.5664 19.6569 21.5664 18C21.5664 16.3431 20.227 15 18.5747 15C16.9224 15 15.5829 16.3431 15.5829 18C15.5829 19.6569 16.9224 21 18.5747 21Z" fill="#99EFD0"/>
</svg>
