<svg width="37" height="36" viewBox="0 0 37 36" fill="none" xmlns="http://www.w3.org/2000/svg">
<path opacity="0.3" fill-rule="evenodd" clip-rule="evenodd" d="M30.3254 21V3C25.3685 3 21.3501 7.01836 21.3501 11.9753V18.2574L12.1182 9C9.78154 11.3431 9.78154 15.1421 12.1182 17.4853L19.8212 25.2095L24.0192 21H30.3254Z" fill="#99EFD0"/>
<path fill-rule="evenodd" clip-rule="evenodd" d="M6.90376 18C4.14234 18 1.90376 20.2386 1.90376 23V26.5C1.90376 29.2614 4.14234 31.5 6.90377 31.5H29.813C32.5744 31.5 34.813 29.2614 34.813 26.5V23C34.813 20.2386 32.5744 18 29.813 18H6.90376ZM31.8213 24.75C31.8213 25.9926 30.8167 27 29.5775 27C28.3382 27 27.3336 25.9926 27.3336 24.75C27.3336 23.5074 28.3382 22.5 29.5775 22.5C30.8167 22.5 31.8213 23.5074 31.8213 24.75Z" fill="#99EFD0"/>
</svg>
