<svg width="684" height="617" viewBox="0 0 684 617" fill="none" xmlns="http://www.w3.org/2000/svg">
<g opacity="0.2">
<path d="M346.282 180.923C344.356 182.035 341.891 181.375 340.779 179.448C339.667 177.522 340.327 175.058 342.254 173.945C344.18 172.833 346.645 173.494 347.757 175.42C348.856 177.325 348.208 179.811 346.282 180.923Z" fill="url(#paint0_linear_3_367)"/>
<path d="M264.838 222.494L265.505 223.65L342.556 179.165L341.889 178.009L264.838 222.494Z" fill="url(#paint1_linear_3_367)"/>
<path d="M342.77 393.956C340.844 395.068 338.38 394.408 337.268 392.482C336.155 390.555 336.816 388.091 338.742 386.979C340.668 385.867 343.133 386.527 344.245 388.453C345.357 390.38 344.697 392.844 342.77 393.956Z" fill="url(#paint2_linear_3_367)"/>
<path d="M261.338 435.549L262.005 436.705L339.078 392.207L338.411 391.051L261.338 435.549Z" fill="url(#paint3_linear_3_367)"/>
<path d="M235.74 397.934C233.814 399.046 231.349 398.385 230.237 396.459C229.125 394.533 229.785 392.068 231.711 390.956C233.638 389.844 236.102 390.504 237.214 392.431C238.326 394.357 237.666 396.821 235.74 397.934Z" fill="url(#paint4_linear_3_367)"/>
<path d="M154.295 439.505L154.963 440.661L232.014 396.175L231.346 395.019L154.295 439.505Z" fill="url(#paint5_linear_3_367)"/>
<path d="M233.323 352.87C231.397 353.982 228.932 353.322 227.82 351.395C226.708 349.469 227.368 347.005 229.294 345.893C231.221 344.78 233.685 345.441 234.797 347.367C235.919 349.26 235.271 351.745 233.323 352.87Z" fill="url(#paint6_linear_3_367)"/>
<path d="M151.9 394.429L152.567 395.585L229.639 351.087L228.972 349.931L151.9 394.429Z" fill="url(#paint7_linear_3_367)"/>
<path d="M399.466 181.152C397.539 182.264 395.075 181.604 393.963 179.677C392.851 177.751 393.511 175.287 395.437 174.175C397.364 173.062 399.828 173.723 400.94 175.649C402.052 177.575 401.392 180.04 399.466 181.152Z" fill="url(#paint8_linear_3_367)"/>
<path d="M318.021 222.723L318.688 223.879L395.739 179.394L395.072 178.238L318.021 222.723Z" fill="url(#paint9_linear_3_367)"/>
<path d="M143.877 256.716C141.951 257.828 139.486 257.168 138.374 255.242C137.262 253.315 137.923 250.851 139.849 249.739C141.775 248.626 144.24 249.287 145.352 251.213C146.464 253.139 145.804 255.604 143.877 256.716Z" fill="url(#paint10_linear_3_367)"/>
<path d="M62.4665 298.297L63.1337 299.452L140.185 254.967L139.518 253.811L62.4665 298.297Z" fill="url(#paint11_linear_3_367)"/>
<path d="M196.047 354.986C194.121 356.098 191.657 355.437 190.544 353.511C189.432 351.585 190.093 349.12 192.019 348.008C193.945 346.896 196.41 347.556 197.522 349.483C198.634 351.409 197.974 353.873 196.047 354.986Z" fill="url(#paint12_linear_3_367)"/>
<path d="M153.15 374.302L153.817 375.458L192.343 353.215L191.675 352.059L153.15 374.302Z" fill="url(#paint13_linear_3_367)"/>
<path d="M313.774 111.568C311.848 112.68 309.383 112.02 308.271 110.093C307.159 108.167 307.819 105.703 309.746 104.59C311.672 103.478 314.136 104.139 315.248 106.065C316.348 107.97 315.7 110.456 313.774 111.568Z" fill="url(#paint14_linear_3_367)"/>
<path d="M270.855 130.896L271.522 132.052L310.048 109.809L309.381 108.654L270.855 130.896Z" fill="url(#paint15_linear_3_367)"/>
<path d="M187.92 515.292C185.994 516.404 183.53 515.744 182.417 513.818C181.305 511.892 181.966 509.427 183.892 508.315C185.818 507.203 188.283 507.863 189.395 509.789C190.495 511.694 189.847 514.18 187.92 515.292Z" fill="url(#paint16_linear_3_367)"/>
<path d="M145.023 534.609L145.69 535.764L184.215 513.522L183.548 512.366L145.023 534.609Z" fill="url(#paint17_linear_3_367)"/>
<g filter="url(#filter0_d_3_367)">
<path d="M225.516 430.148C223.59 431.26 221.125 430.6 220.013 428.673C218.901 426.747 219.561 424.283 221.488 423.17C223.414 422.058 225.878 422.719 226.99 424.645C228.103 426.571 227.442 429.036 225.516 430.148Z" fill="url(#paint18_linear_3_367)" shape-rendering="crispEdges"/>
<path d="M225.266 429.715C223.579 430.689 221.42 430.11 220.446 428.423C219.472 426.736 220.05 424.577 221.738 423.603C223.425 422.629 225.583 423.208 226.557 424.895C227.532 426.582 226.953 428.741 225.266 429.715Z" stroke="black" shape-rendering="crispEdges"/>
</g>
<path d="M182.597 449.476L183.264 450.632L221.79 428.389L221.122 427.234L182.597 449.476Z" fill="url(#paint19_linear_3_367)"/>
<path d="M107.015 348.172C105.089 349.284 102.624 348.624 101.512 346.697C100.4 344.771 101.06 342.307 102.986 341.195C104.913 340.082 107.377 340.743 108.489 342.669C109.611 344.562 108.941 347.06 107.015 348.172Z" fill="url(#paint20_linear_3_367)"/>
<path d="M64.1172 367.488L64.7845 368.644L103.31 346.401L102.643 345.246L64.1172 367.488Z" fill="url(#paint21_linear_3_367)"/>
<path d="M416.984 233.934C415.057 235.047 412.593 234.386 411.481 232.46C410.368 230.534 411.029 228.069 412.955 226.957C414.881 225.845 417.346 226.505 418.458 228.432C419.57 230.358 418.91 232.822 416.984 233.934Z" fill="url(#paint22_linear_3_367)"/>
<path d="M335.551 275.527L336.219 276.683L413.291 232.185L412.624 231.029L335.551 275.527Z" fill="url(#paint23_linear_3_367)"/>
<path d="M345.819 432.748C343.892 433.86 341.428 433.2 340.316 431.274C339.204 429.347 339.864 426.883 341.79 425.771C343.717 424.658 346.181 425.319 347.293 427.245C348.405 429.171 347.745 431.636 345.819 432.748Z" fill="url(#paint24_linear_3_367)"/>
<path d="M264.396 474.307L265.063 475.463L342.114 430.977L341.447 429.822L264.396 474.307Z" fill="url(#paint25_linear_3_367)"/>
<path d="M318.115 157.147C316.189 158.259 313.724 157.599 312.612 155.673C311.5 153.746 312.161 151.282 314.087 150.17C316.013 149.058 318.478 149.718 319.59 151.644C320.723 153.558 320.063 156.023 318.115 157.147Z" fill="url(#paint26_linear_3_367)"/>
<path d="M236.704 198.727L237.372 199.883L314.444 155.385L313.777 154.23L236.704 198.727Z" fill="url(#paint27_linear_3_367)"/>
<path d="M359.691 519.797C357.765 520.909 355.3 520.249 354.188 518.322C353.076 516.396 353.736 513.932 355.663 512.82C357.589 511.707 360.054 512.368 361.166 514.294C362.278 516.22 361.617 518.685 359.691 519.797Z" fill="url(#paint28_linear_3_367)"/>
<path d="M278.259 561.39L278.926 562.546L355.999 518.048L355.331 516.892L278.259 561.39Z" fill="url(#paint29_linear_3_367)"/>
<path d="M609.34 213.199C607.413 214.311 604.949 213.65 603.837 211.724C602.725 209.798 603.385 207.333 605.311 206.221C607.238 205.109 609.702 205.769 610.814 207.696C611.948 209.61 611.266 212.086 609.34 213.199Z" fill="url(#paint30_linear_3_367)"/>
<path d="M339.09 363.806L339.757 364.961L605.647 211.449L604.98 210.294L339.09 363.806Z" fill="url(#paint31_linear_3_367)"/>
<path d="M640.873 300.439C638.947 301.551 636.482 300.89 635.37 298.964C634.258 297.038 634.919 294.573 636.845 293.461C638.771 292.349 641.236 293.009 642.348 294.936C643.481 296.85 642.821 299.314 640.873 300.439Z" fill="url(#paint32_linear_3_367)"/>
<path d="M228.387 533.137L229.054 534.293L637.19 298.656L636.523 297.5L228.387 533.137Z" fill="url(#paint33_linear_3_367)"/>
<path d="M371.688 153.156C369.761 154.268 367.297 153.608 366.185 151.682C365.073 149.755 365.733 147.291 367.659 146.179C369.586 145.067 372.05 145.727 373.162 147.653C374.274 149.58 373.614 152.044 371.688 153.156Z" fill="url(#paint34_linear_3_367)"/>
<path d="M101.437 303.763L102.105 304.919L367.995 151.407L367.328 150.251L101.437 303.763Z" fill="url(#paint35_linear_3_367)"/>
<path d="M503.876 202.145C501.95 203.257 499.486 202.597 498.373 200.67C497.261 198.744 497.922 196.28 499.848 195.168C501.774 194.055 504.239 194.716 505.351 196.642C506.484 198.556 505.803 201.033 503.876 202.145Z" fill="url(#paint36_linear_3_367)"/>
<path d="M233.635 352.718L234.302 353.874L500.193 200.362L499.526 199.206L233.635 352.718Z" fill="url(#paint37_linear_3_367)"/>
<path d="M564.577 356.76C562.65 357.872 560.186 357.211 559.074 355.285C557.962 353.359 558.622 350.894 560.548 349.782C562.475 348.67 564.939 349.33 566.051 351.257C567.163 353.183 566.503 355.647 564.577 356.76Z" fill="url(#paint38_linear_3_367)"/>
<path d="M294.327 507.367L294.994 508.522L560.884 355.01L560.217 353.855L294.327 507.367Z" fill="url(#paint39_linear_3_367)"/>
<path d="M254.992 247.356C253.065 248.468 250.601 247.808 249.489 245.881C248.377 243.955 249.037 241.491 250.963 240.378C252.89 239.266 255.354 239.927 256.466 241.853C257.6 243.767 256.939 246.231 254.992 247.356Z" fill="url(#paint40_linear_3_367)"/>
<path d="M103.516 329.36L104.183 330.515L251.287 245.585L250.62 244.429L103.516 329.36Z" fill="url(#paint41_linear_3_367)"/>
<path d="M422.965 357.387C421.039 358.499 418.574 357.839 417.462 355.913C416.35 353.986 417.011 351.522 418.937 350.41C420.863 349.297 423.328 349.958 424.44 351.884C425.552 353.81 424.891 356.275 422.965 357.387Z" fill="url(#paint42_linear_3_367)"/>
<path d="M271.49 439.391L272.157 440.547L419.26 355.616L418.593 354.461L271.49 439.391Z" fill="url(#paint43_linear_3_367)"/>
</g>
<defs>
<filter id="filter0_d_3_367" x="215.473" y="422.63" width="16.0577" height="16.0577" filterUnits="userSpaceOnUse" color-interpolation-filters="sRGB">
<feFlood flood-opacity="0" result="BackgroundImageFix"/>
<feColorMatrix in="SourceAlpha" type="matrix" values="0 0 0 0 0 0 0 0 0 0 0 0 0 0 0 0 0 0 127 0" result="hardAlpha"/>
<feOffset dy="4"/>
<feGaussianBlur stdDeviation="2"/>
<feComposite in2="hardAlpha" operator="out"/>
<feColorMatrix type="matrix" values="0 0 0 0 0 0 0 0 0 0 0 0 0 0 0 0 0 0 0.25 0"/>
<feBlend mode="normal" in2="BackgroundImageFix" result="effect1_dropShadow_3_367"/>
<feBlend mode="normal" in="SourceGraphic" in2="effect1_dropShadow_3_367" result="shape"/>
</filter>
<linearGradient id="paint0_linear_3_367" x1="324.616" y1="188.76" x2="263.977" y2="223.77" gradientUnits="userSpaceOnUse">
<stop stop-color="#A4FFFF"/>
<stop offset="1" stop-color="#A4FFFF" stop-opacity="0"/>
</linearGradient>
<linearGradient id="paint1_linear_3_367" x1="324.614" y1="188.758" x2="263.977" y2="223.767" gradientUnits="userSpaceOnUse">
<stop stop-color="#A4FFFF"/>
<stop offset="1" stop-color="#A4FFFF" stop-opacity="0"/>
</linearGradient>
<linearGradient id="paint2_linear_3_367" x1="321.112" y1="401.81" x2="260.455" y2="436.83" gradientUnits="userSpaceOnUse">
<stop stop-color="#A4FFFF"/>
<stop offset="1" stop-color="#A4FFFF" stop-opacity="0"/>
</linearGradient>
<linearGradient id="paint3_linear_3_367" x1="321.119" y1="401.806" x2="260.478" y2="436.817" gradientUnits="userSpaceOnUse">
<stop stop-color="#A4FFFF"/>
<stop offset="1" stop-color="#A4FFFF" stop-opacity="0"/>
</linearGradient>
<linearGradient id="paint4_linear_3_367" x1="214.081" y1="405.768" x2="153.442" y2="440.778" gradientUnits="userSpaceOnUse">
<stop stop-color="#A4FFFF"/>
<stop offset="1" stop-color="#A4FFFF" stop-opacity="0"/>
</linearGradient>
<linearGradient id="paint5_linear_3_367" x1="214.08" y1="405.769" x2="153.443" y2="440.778" gradientUnits="userSpaceOnUse">
<stop stop-color="#A4FFFF"/>
<stop offset="1" stop-color="#A4FFFF" stop-opacity="0"/>
</linearGradient>
<linearGradient id="paint6_linear_3_367" x1="211.671" y1="360.697" x2="151.031" y2="395.708" gradientUnits="userSpaceOnUse">
<stop stop-color="#A4FFFF"/>
<stop offset="1" stop-color="#A4FFFF" stop-opacity="0"/>
</linearGradient>
<linearGradient id="paint7_linear_3_367" x1="211.672" y1="360.696" x2="151.034" y2="395.706" gradientUnits="userSpaceOnUse">
<stop stop-color="#A4FFFF"/>
<stop offset="1" stop-color="#A4FFFF" stop-opacity="0"/>
</linearGradient>
<linearGradient id="paint8_linear_3_367" x1="377.81" y1="188.987" x2="317.187" y2="223.987" gradientUnits="userSpaceOnUse">
<stop stop-color="#A4FFFF"/>
<stop offset="1" stop-color="#A4FFFF" stop-opacity="0"/>
</linearGradient>
<linearGradient id="paint9_linear_3_367" x1="377.804" y1="188.989" x2="317.166" y2="223.998" gradientUnits="userSpaceOnUse">
<stop stop-color="#A4FFFF"/>
<stop offset="1" stop-color="#A4FFFF" stop-opacity="0"/>
</linearGradient>
<linearGradient id="paint10_linear_3_367" x1="122.228" y1="264.563" x2="61.589" y2="299.572" gradientUnits="userSpaceOnUse">
<stop stop-color="#A4FFFF"/>
<stop offset="1" stop-color="#A4FFFF" stop-opacity="0"/>
</linearGradient>
<linearGradient id="paint11_linear_3_367" x1="122.227" y1="264.564" x2="61.59" y2="299.573" gradientUnits="userSpaceOnUse">
<stop stop-color="#A4FFFF"/>
<stop offset="1" stop-color="#A4FFFF" stop-opacity="0"/>
</linearGradient>
<linearGradient id="paint12_linear_3_367" x1="174.396" y1="362.821" x2="113.757" y2="397.831" gradientUnits="userSpaceOnUse">
<stop stop-color="#A4FFFF"/>
<stop offset="1" stop-color="#A4FFFF" stop-opacity="0"/>
</linearGradient>
<linearGradient id="paint13_linear_3_367" x1="183.208" y1="357.732" x2="152.889" y2="375.237" gradientUnits="userSpaceOnUse">
<stop stop-color="#A4FFFF"/>
<stop offset="1" stop-color="#A4FFFF" stop-opacity="0"/>
</linearGradient>
<linearGradient id="paint14_linear_3_367" x1="292.107" y1="119.404" x2="231.468" y2="154.414" gradientUnits="userSpaceOnUse">
<stop stop-color="#A4FFFF"/>
<stop offset="1" stop-color="#A4FFFF" stop-opacity="0"/>
</linearGradient>
<linearGradient id="paint15_linear_3_367" x1="300.92" y1="114.316" x2="270.601" y2="131.821" gradientUnits="userSpaceOnUse">
<stop stop-color="#A4FFFF"/>
<stop offset="1" stop-color="#A4FFFF" stop-opacity="0"/>
</linearGradient>
<linearGradient id="paint16_linear_3_367" x1="166.264" y1="523.121" x2="105.625" y2="558.131" gradientUnits="userSpaceOnUse">
<stop stop-color="#A4FFFF"/>
<stop offset="1" stop-color="#A4FFFF" stop-opacity="0"/>
</linearGradient>
<linearGradient id="paint17_linear_3_367" x1="175.077" y1="518.034" x2="144.758" y2="535.538" gradientUnits="userSpaceOnUse">
<stop stop-color="#A4FFFF"/>
<stop offset="1" stop-color="#A4FFFF" stop-opacity="0"/>
</linearGradient>
<linearGradient id="paint18_linear_3_367" x1="203.844" y1="437.989" x2="143.187" y2="473.01" gradientUnits="userSpaceOnUse">
<stop stop-color="#A4FFFF"/>
<stop offset="1" stop-color="#A4FFFF" stop-opacity="0"/>
</linearGradient>
<linearGradient id="paint19_linear_3_367" x1="212.664" y1="432.897" x2="182.345" y2="450.402" gradientUnits="userSpaceOnUse">
<stop stop-color="#A4FFFF"/>
<stop offset="1" stop-color="#A4FFFF" stop-opacity="0"/>
</linearGradient>
<linearGradient id="paint20_linear_3_367" x1="85.3604" y1="356" x2="24.7214" y2="391.01" gradientUnits="userSpaceOnUse">
<stop stop-color="#A4FFFF"/>
<stop offset="1" stop-color="#A4FFFF" stop-opacity="0"/>
</linearGradient>
<linearGradient id="paint21_linear_3_367" x1="94.1712" y1="350.911" x2="63.855" y2="368.414" gradientUnits="userSpaceOnUse">
<stop stop-color="#A4FFFF"/>
<stop offset="1" stop-color="#A4FFFF" stop-opacity="0"/>
</linearGradient>
<linearGradient id="paint22_linear_3_367" x1="395.327" y1="241.774" x2="334.688" y2="276.784" gradientUnits="userSpaceOnUse">
<stop stop-color="#A4FFFF"/>
<stop offset="1" stop-color="#A4FFFF" stop-opacity="0"/>
</linearGradient>
<linearGradient id="paint23_linear_3_367" x1="395.328" y1="241.775" x2="334.69" y2="276.784" gradientUnits="userSpaceOnUse">
<stop stop-color="#A4FFFF"/>
<stop offset="1" stop-color="#A4FFFF" stop-opacity="0"/>
</linearGradient>
<linearGradient id="paint24_linear_3_367" x1="324.162" y1="440.585" x2="263.523" y2="475.595" gradientUnits="userSpaceOnUse">
<stop stop-color="#A4FFFF"/>
<stop offset="1" stop-color="#A4FFFF" stop-opacity="0"/>
</linearGradient>
<linearGradient id="paint25_linear_3_367" x1="324.163" y1="440.585" x2="263.526" y2="475.594" gradientUnits="userSpaceOnUse">
<stop stop-color="#A4FFFF"/>
<stop offset="1" stop-color="#A4FFFF" stop-opacity="0"/>
</linearGradient>
<linearGradient id="paint26_linear_3_367" x1="296.466" y1="164.988" x2="235.809" y2="200.008" gradientUnits="userSpaceOnUse">
<stop stop-color="#A4FFFF"/>
<stop offset="1" stop-color="#A4FFFF" stop-opacity="0"/>
</linearGradient>
<linearGradient id="paint27_linear_3_367" x1="296.471" y1="164.983" x2="235.833" y2="199.992" gradientUnits="userSpaceOnUse">
<stop stop-color="#A4FFFF"/>
<stop offset="1" stop-color="#A4FFFF" stop-opacity="0"/>
</linearGradient>
<linearGradient id="paint28_linear_3_367" x1="338.028" y1="527.643" x2="277.389" y2="562.653" gradientUnits="userSpaceOnUse">
<stop stop-color="#A4FFFF"/>
<stop offset="1" stop-color="#A4FFFF" stop-opacity="0"/>
</linearGradient>
<linearGradient id="paint29_linear_3_367" x1="338.028" y1="527.642" x2="277.39" y2="562.652" gradientUnits="userSpaceOnUse">
<stop stop-color="#A4FFFF"/>
<stop offset="1" stop-color="#A4FFFF" stop-opacity="0"/>
</linearGradient>
<linearGradient id="paint30_linear_3_367" x1="573.126" y1="229.445" x2="465.134" y2="291.795" gradientUnits="userSpaceOnUse">
<stop stop-color="#A4FFFF"/>
<stop offset="1" stop-color="#A4FFFF" stop-opacity="0"/>
</linearGradient>
<linearGradient id="paint31_linear_3_367" x1="546.103" y1="245.045" x2="347.447" y2="359.74" gradientUnits="userSpaceOnUse">
<stop stop-color="#A4FFFF"/>
<stop offset="1" stop-color="#A4FFFF" stop-opacity="0"/>
</linearGradient>
<linearGradient id="paint32_linear_3_367" x1="604.662" y1="316.678" x2="496.669" y2="379.027" gradientUnits="userSpaceOnUse">
<stop stop-color="#A4FFFF"/>
<stop offset="1" stop-color="#A4FFFF" stop-opacity="0"/>
</linearGradient>
<linearGradient id="paint33_linear_3_367" x1="545.963" y1="350.566" x2="241.034" y2="526.617" gradientUnits="userSpaceOnUse">
<stop stop-color="#A4FFFF"/>
<stop offset="1" stop-color="#A4FFFF" stop-opacity="0"/>
</linearGradient>
<linearGradient id="paint34_linear_3_367" x1="335.475" y1="169.414" x2="227.483" y2="231.764" gradientUnits="userSpaceOnUse">
<stop stop-color="#A4FFFF"/>
<stop offset="1" stop-color="#A4FFFF" stop-opacity="0"/>
</linearGradient>
<linearGradient id="paint35_linear_3_367" x1="308.452" y1="185.014" x2="109.796" y2="299.708" gradientUnits="userSpaceOnUse">
<stop stop-color="#A4FFFF"/>
<stop offset="1" stop-color="#A4FFFF" stop-opacity="0"/>
</linearGradient>
<linearGradient id="paint36_linear_3_367" x1="467.66" y1="218.386" x2="359.668" y2="280.736" gradientUnits="userSpaceOnUse">
<stop stop-color="#A4FFFF"/>
<stop offset="1" stop-color="#A4FFFF" stop-opacity="0"/>
</linearGradient>
<linearGradient id="paint37_linear_3_367" x1="440.635" y1="233.988" x2="241.981" y2="348.681" gradientUnits="userSpaceOnUse">
<stop stop-color="#A4FFFF"/>
<stop offset="1" stop-color="#A4FFFF" stop-opacity="0"/>
</linearGradient>
<linearGradient id="paint38_linear_3_367" x1="528.36" y1="373.009" x2="420.368" y2="435.359" gradientUnits="userSpaceOnUse">
<stop stop-color="#A4FFFF"/>
<stop offset="1" stop-color="#A4FFFF" stop-opacity="0"/>
</linearGradient>
<linearGradient id="paint39_linear_3_367" x1="501.338" y1="388.611" x2="302.683" y2="503.304" gradientUnits="userSpaceOnUse">
<stop stop-color="#A4FFFF"/>
<stop offset="1" stop-color="#A4FFFF" stop-opacity="0"/>
</linearGradient>
<linearGradient id="paint40_linear_3_367" x1="218.77" y1="263.604" x2="110.744" y2="325.973" gradientUnits="userSpaceOnUse">
<stop stop-color="#A4FFFF"/>
<stop offset="1" stop-color="#A4FFFF" stop-opacity="0"/>
</linearGradient>
<linearGradient id="paint41_linear_3_367" x1="218.211" y1="263.927" x2="108.299" y2="327.384" gradientUnits="userSpaceOnUse">
<stop stop-color="#A4FFFF"/>
<stop offset="1" stop-color="#A4FFFF" stop-opacity="0"/>
</linearGradient>
<linearGradient id="paint42_linear_3_367" x1="386.747" y1="373.631" x2="278.787" y2="435.962" gradientUnits="userSpaceOnUse">
<stop stop-color="#A4FFFF"/>
<stop offset="1" stop-color="#A4FFFF" stop-opacity="0"/>
</linearGradient>
<linearGradient id="paint43_linear_3_367" x1="386.167" y1="373.966" x2="276.256" y2="437.423" gradientUnits="userSpaceOnUse">
<stop stop-color="#A4FFFF"/>
<stop offset="1" stop-color="#A4FFFF" stop-opacity="0"/>
</linearGradient>
</defs>
</svg>
